<?xml version="1.0"?>
<!DOCTYPE svg PUBLIC "-//W3C//DTD SVG 1.1//EN" "http://www.w3.org/Graphics/SVG/1.1/DTD/svg11.dtd">
<svg xmlns="http://www.w3.org/2000/svg" width="800" height="800">
  <line x1="50" y1="50" x2="150" y2="150" stroke="black" stroke-width="5" />
  <line x1="150" y1="50" x2="50" y2="150" stroke="black" stroke-width="5" />
  <line x1="50" y1="150" x2="150" y2="250" stroke="black" stroke-width="5" />
  <line x1="150" y1="150" x2="50" y2="250" stroke="black" stroke-width="5" />
  <line x1="50" y1="250" x2="150" y2="350" stroke="black" stroke-width="5" />
  <line x1="150" y1="250" x2="50" y2="350" stroke="black" stroke-width="5" />
  <line x1="50" y1="350" x2="150" y2="450" stroke="black" stroke-width="5" />
  <line x1="150" y1="350" x2="50" y2="450" stroke="black" stroke-width="5" />
  <line x1="50" y1="450" x2="150" y2="550" stroke="black" stroke-width="5" />
  <line x1="150" y1="450" x2="50" y2="550" stroke="black" stroke-width="5" />
  <line x1="50" y1="550" x2="150" y2="650" stroke="black" stroke-width="5" />
  <line x1="150" y1="550" x2="50" y2="650" stroke="black" stroke-width="5" />
  <line x1="50" y1="650" x2="150" y2="750" stroke="black" stroke-width="5" />
  <line x1="150" y1="650" x2="50" y2="750" stroke="black" stroke-width="5" />
  <line x1="150" y1="50" x2="250" y2="150" stroke="black" stroke-width="5" />
  <line x1="250" y1="50" x2="150" y2="150" stroke="black" stroke-width="5" />
  <line x1="150" y1="150" x2="250" y2="250" stroke="black" stroke-width="5" />
  <line x1="250" y1="150" x2="150" y2="250" stroke="black" stroke-width="5" />
  <line x1="150" y1="250" x2="250" y2="350" stroke="black" stroke-width="5" />
  <line x1="250" y1="250" x2="150" y2="350" stroke="black" stroke-width="5" />
  <line x1="150" y1="350" x2="250" y2="450" stroke="black" stroke-width="5" />
  <line x1="250" y1="350" x2="150" y2="450" stroke="black" stroke-width="5" />
  <line x1="150" y1="450" x2="250" y2="550" stroke="black" stroke-width="5" />
  <line x1="250" y1="450" x2="150" y2="550" stroke="black" stroke-width="5" />
  <line x1="150" y1="550" x2="250" y2="650" stroke="black" stroke-width="5" />
  <line x1="250" y1="550" x2="150" y2="650" stroke="black" stroke-width="5" />
  <line x1="150" y1="650" x2="250" y2="750" stroke="black" stroke-width="5" />
  <line x1="250" y1="650" x2="150" y2="750" stroke="black" stroke-width="5" />
  <line x1="250" y1="50" x2="350" y2="150" stroke="black" stroke-width="5" />
  <line x1="350" y1="50" x2="250" y2="150" stroke="black" stroke-width="5" />
  <line x1="250" y1="150" x2="350" y2="250" stroke="black" stroke-width="5" />
  <line x1="350" y1="150" x2="250" y2="250" stroke="black" stroke-width="5" />
  <line x1="250" y1="250" x2="350" y2="350" stroke="black" stroke-width="5" />
  <line x1="350" y1="250" x2="250" y2="350" stroke="black" stroke-width="5" />
  <line x1="250" y1="350" x2="350" y2="450" stroke="black" stroke-width="5" />
  <line x1="350" y1="350" x2="250" y2="450" stroke="black" stroke-width="5" />
  <line x1="250" y1="450" x2="350" y2="550" stroke="black" stroke-width="5" />
  <line x1="350" y1="450" x2="250" y2="550" stroke="black" stroke-width="5" />
  <line x1="250" y1="550" x2="350" y2="650" stroke="black" stroke-width="5" />
  <line x1="350" y1="550" x2="250" y2="650" stroke="black" stroke-width="5" />
  <line x1="250" y1="650" x2="350" y2="750" stroke="black" stroke-width="5" />
  <line x1="350" y1="650" x2="250" y2="750" stroke="black" stroke-width="5" />
  <line x1="350" y1="50" x2="450" y2="150" stroke="black" stroke-width="5" />
  <line x1="450" y1="50" x2="350" y2="150" stroke="black" stroke-width="5" />
  <line x1="350" y1="150" x2="450" y2="250" stroke="black" stroke-width="5" />
  <line x1="450" y1="150" x2="350" y2="250" stroke="black" stroke-width="5" />
  <line x1="350" y1="250" x2="450" y2="350" stroke="black" stroke-width="5" />
  <line x1="450" y1="250" x2="350" y2="350" stroke="black" stroke-width="5" />
  <line x1="350" y1="350" x2="450" y2="450" stroke="black" stroke-width="5" />
  <line x1="450" y1="350" x2="350" y2="450" stroke="black" stroke-width="5" />
  <line x1="350" y1="450" x2="450" y2="550" stroke="black" stroke-width="5" />
  <line x1="450" y1="450" x2="350" y2="550" stroke="black" stroke-width="5" />
  <line x1="350" y1="550" x2="450" y2="650" stroke="black" stroke-width="5" />
  <line x1="450" y1="550" x2="350" y2="650" stroke="black" stroke-width="5" />
  <line x1="350" y1="650" x2="450" y2="750" stroke="black" stroke-width="5" />
  <line x1="450" y1="650" x2="350" y2="750" stroke="black" stroke-width="5" />
  <line x1="450" y1="50" x2="550" y2="150" stroke="black" stroke-width="5" />
  <line x1="550" y1="50" x2="450" y2="150" stroke="black" stroke-width="5" />
  <line x1="450" y1="150" x2="550" y2="250" stroke="black" stroke-width="5" />
  <line x1="550" y1="150" x2="450" y2="250" stroke="black" stroke-width="5" />
  <line x1="450" y1="250" x2="550" y2="350" stroke="black" stroke-width="5" />
  <line x1="550" y1="250" x2="450" y2="350" stroke="black" stroke-width="5" />
  <line x1="450" y1="350" x2="550" y2="450" stroke="black" stroke-width="5" />
  <line x1="550" y1="350" x2="450" y2="450" stroke="black" stroke-width="5" />
  <line x1="450" y1="450" x2="550" y2="550" stroke="black" stroke-width="5" />
  <line x1="550" y1="450" x2="450" y2="550" stroke="black" stroke-width="5" />
  <line x1="450" y1="550" x2="550" y2="650" stroke="black" stroke-width="5" />
  <line x1="550" y1="550" x2="450" y2="650" stroke="black" stroke-width="5" />
  <line x1="450" y1="650" x2="550" y2="750" stroke="black" stroke-width="5" />
  <line x1="550" y1="650" x2="450" y2="750" stroke="black" stroke-width="5" />
  <line x1="550" y1="50" x2="650" y2="150" stroke="black" stroke-width="5" />
  <line x1="650" y1="50" x2="550" y2="150" stroke="black" stroke-width="5" />
  <line x1="550" y1="150" x2="650" y2="250" stroke="black" stroke-width="5" />
  <line x1="650" y1="150" x2="550" y2="250" stroke="black" stroke-width="5" />
  <line x1="550" y1="250" x2="650" y2="350" stroke="black" stroke-width="5" />
  <line x1="650" y1="250" x2="550" y2="350" stroke="black" stroke-width="5" />
  <line x1="550" y1="350" x2="650" y2="450" stroke="black" stroke-width="5" />
  <line x1="650" y1="350" x2="550" y2="450" stroke="black" stroke-width="5" />
  <line x1="550" y1="450" x2="650" y2="550" stroke="black" stroke-width="5" />
  <line x1="650" y1="450" x2="550" y2="550" stroke="black" stroke-width="5" />
  <line x1="550" y1="550" x2="650" y2="650" stroke="black" stroke-width="5" />
  <line x1="650" y1="550" x2="550" y2="650" stroke="black" stroke-width="5" />
  <line x1="550" y1="650" x2="650" y2="750" stroke="black" stroke-width="5" />
  <line x1="650" y1="650" x2="550" y2="750" stroke="black" stroke-width="5" />
  <line x1="650" y1="50" x2="750" y2="150" stroke="black" stroke-width="5" />
  <line x1="750" y1="50" x2="650" y2="150" stroke="black" stroke-width="5" />
  <line x1="650" y1="150" x2="750" y2="250" stroke="black" stroke-width="5" />
  <line x1="750" y1="150" x2="650" y2="250" stroke="black" stroke-width="5" />
  <line x1="650" y1="250" x2="750" y2="350" stroke="black" stroke-width="5" />
  <line x1="750" y1="250" x2="650" y2="350" stroke="black" stroke-width="5" />
  <line x1="650" y1="350" x2="750" y2="450" stroke="black" stroke-width="5" />
  <line x1="750" y1="350" x2="650" y2="450" stroke="black" stroke-width="5" />
  <line x1="650" y1="450" x2="750" y2="550" stroke="black" stroke-width="5" />
  <line x1="750" y1="450" x2="650" y2="550" stroke="black" stroke-width="5" />
  <line x1="650" y1="550" x2="750" y2="650" stroke="black" stroke-width="5" />
  <line x1="750" y1="550" x2="650" y2="650" stroke="black" stroke-width="5" />
  <line x1="650" y1="650" x2="750" y2="750" stroke="black" stroke-width="5" />
  <line x1="750" y1="650" x2="650" y2="750" stroke="black" stroke-width="5" />
  <line x1="50" y1="50" x2="150" y2="50" stroke="black" stroke-width="5" />
  <line x1="50" y1="150" x2="150" y2="150" stroke="black" stroke-width="5" />
  <line x1="50" y1="250" x2="150" y2="250" stroke="black" stroke-width="5" />
  <line x1="50" y1="350" x2="150" y2="350" stroke="black" stroke-width="5" />
  <line x1="50" y1="450" x2="150" y2="450" stroke="black" stroke-width="5" />
  <line x1="50" y1="550" x2="150" y2="550" stroke="black" stroke-width="5" />
  <line x1="50" y1="650" x2="150" y2="650" stroke="black" stroke-width="5" />
  <line x1="50" y1="750" x2="150" y2="750" stroke="black" stroke-width="5" />
  <line x1="150" y1="50" x2="250" y2="50" stroke="black" stroke-width="5" />
  <line x1="150" y1="150" x2="250" y2="150" stroke="black" stroke-width="5" />
  <line x1="150" y1="250" x2="250" y2="250" stroke="black" stroke-width="5" />
  <line x1="150" y1="350" x2="250" y2="350" stroke="black" stroke-width="5" />
  <line x1="150" y1="450" x2="250" y2="450" stroke="black" stroke-width="5" />
  <line x1="150" y1="550" x2="250" y2="550" stroke="black" stroke-width="5" />
  <line x1="150" y1="650" x2="250" y2="650" stroke="black" stroke-width="5" />
  <line x1="150" y1="750" x2="250" y2="750" stroke="black" stroke-width="5" />
  <line x1="250" y1="50" x2="350" y2="50" stroke="black" stroke-width="5" />
  <line x1="250" y1="150" x2="350" y2="150" stroke="black" stroke-width="5" />
  <line x1="250" y1="250" x2="350" y2="250" stroke="black" stroke-width="5" />
  <line x1="250" y1="350" x2="350" y2="350" stroke="black" stroke-width="5" />
  <line x1="250" y1="450" x2="350" y2="450" stroke="black" stroke-width="5" />
  <line x1="250" y1="550" x2="350" y2="550" stroke="black" stroke-width="5" />
  <line x1="250" y1="650" x2="350" y2="650" stroke="black" stroke-width="5" />
  <line x1="250" y1="750" x2="350" y2="750" stroke="black" stroke-width="5" />
  <line x1="350" y1="50" x2="450" y2="50" stroke="black" stroke-width="5" />
  <line x1="350" y1="150" x2="450" y2="150" stroke="black" stroke-width="5" />
  <line x1="350" y1="250" x2="450" y2="250" stroke="black" stroke-width="5" />
  <line x1="350" y1="350" x2="450" y2="350" stroke="black" stroke-width="5" />
  <line x1="350" y1="450" x2="450" y2="450" stroke="black" stroke-width="5" />
  <line x1="350" y1="550" x2="450" y2="550" stroke="black" stroke-width="5" />
  <line x1="350" y1="650" x2="450" y2="650" stroke="black" stroke-width="5" />
  <line x1="350" y1="750" x2="450" y2="750" stroke="black" stroke-width="5" />
  <line x1="450" y1="50" x2="550" y2="50" stroke="black" stroke-width="5" />
  <line x1="450" y1="150" x2="550" y2="150" stroke="black" stroke-width="5" />
  <line x1="450" y1="250" x2="550" y2="250" stroke="black" stroke-width="5" />
  <line x1="450" y1="350" x2="550" y2="350" stroke="black" stroke-width="5" />
  <line x1="450" y1="450" x2="550" y2="450" stroke="black" stroke-width="5" />
  <line x1="450" y1="550" x2="550" y2="550" stroke="black" stroke-width="5" />
  <line x1="450" y1="650" x2="550" y2="650" stroke="black" stroke-width="5" />
  <line x1="450" y1="750" x2="550" y2="750" stroke="black" stroke-width="5" />
  <line x1="550" y1="50" x2="650" y2="50" stroke="black" stroke-width="5" />
  <line x1="550" y1="150" x2="650" y2="150" stroke="black" stroke-width="5" />
  <line x1="550" y1="250" x2="650" y2="250" stroke="black" stroke-width="5" />
  <line x1="550" y1="350" x2="650" y2="350" stroke="black" stroke-width="5" />
  <line x1="550" y1="450" x2="650" y2="450" stroke="black" stroke-width="5" />
  <line x1="550" y1="550" x2="650" y2="550" stroke="black" stroke-width="5" />
  <line x1="550" y1="650" x2="650" y2="650" stroke="black" stroke-width="5" />
  <line x1="550" y1="750" x2="650" y2="750" stroke="black" stroke-width="5" />
  <line x1="650" y1="50" x2="750" y2="50" stroke="black" stroke-width="5" />
  <line x1="650" y1="150" x2="750" y2="150" stroke="black" stroke-width="5" />
  <line x1="650" y1="250" x2="750" y2="250" stroke="black" stroke-width="5" />
  <line x1="650" y1="350" x2="750" y2="350" stroke="black" stroke-width="5" />
  <line x1="650" y1="450" x2="750" y2="450" stroke="black" stroke-width="5" />
  <line x1="650" y1="550" x2="750" y2="550" stroke="black" stroke-width="5" />
  <line x1="650" y1="650" x2="750" y2="650" stroke="black" stroke-width="5" />
  <line x1="650" y1="750" x2="750" y2="750" stroke="black" stroke-width="5" />
  <line x1="50" y1="50" x2="50" y2="150" stroke="black" stroke-width="5" />
  <line x1="50" y1="150" x2="50" y2="250" stroke="black" stroke-width="5" />
  <line x1="50" y1="250" x2="50" y2="350" stroke="black" stroke-width="5" />
  <line x1="50" y1="350" x2="50" y2="450" stroke="black" stroke-width="5" />
  <line x1="50" y1="450" x2="50" y2="550" stroke="black" stroke-width="5" />
  <line x1="50" y1="550" x2="50" y2="650" stroke="black" stroke-width="5" />
  <line x1="50" y1="650" x2="50" y2="750" stroke="black" stroke-width="5" />
  <line x1="150" y1="50" x2="150" y2="150" stroke="black" stroke-width="5" />
  <line x1="150" y1="150" x2="150" y2="250" stroke="black" stroke-width="5" />
  <line x1="150" y1="250" x2="150" y2="350" stroke="black" stroke-width="5" />
  <line x1="150" y1="350" x2="150" y2="450" stroke="black" stroke-width="5" />
  <line x1="150" y1="450" x2="150" y2="550" stroke="black" stroke-width="5" />
  <line x1="150" y1="550" x2="150" y2="650" stroke="black" stroke-width="5" />
  <line x1="150" y1="650" x2="150" y2="750" stroke="black" stroke-width="5" />
  <line x1="250" y1="50" x2="250" y2="150" stroke="black" stroke-width="5" />
  <line x1="250" y1="150" x2="250" y2="250" stroke="black" stroke-width="5" />
  <line x1="250" y1="250" x2="250" y2="350" stroke="black" stroke-width="5" />
  <line x1="250" y1="350" x2="250" y2="450" stroke="black" stroke-width="5" />
  <line x1="250" y1="450" x2="250" y2="550" stroke="black" stroke-width="5" />
  <line x1="250" y1="550" x2="250" y2="650" stroke="black" stroke-width="5" />
  <line x1="250" y1="650" x2="250" y2="750" stroke="black" stroke-width="5" />
  <line x1="350" y1="50" x2="350" y2="150" stroke="black" stroke-width="5" />
  <line x1="350" y1="150" x2="350" y2="250" stroke="black" stroke-width="5" />
  <line x1="350" y1="250" x2="350" y2="350" stroke="black" stroke-width="5" />
  <line x1="350" y1="350" x2="350" y2="450" stroke="black" stroke-width="5" />
  <line x1="350" y1="450" x2="350" y2="550" stroke="black" stroke-width="5" />
  <line x1="350" y1="550" x2="350" y2="650" stroke="black" stroke-width="5" />
  <line x1="350" y1="650" x2="350" y2="750" stroke="black" stroke-width="5" />
  <line x1="450" y1="50" x2="450" y2="150" stroke="black" stroke-width="5" />
  <line x1="450" y1="150" x2="450" y2="250" stroke="black" stroke-width="5" />
  <line x1="450" y1="250" x2="450" y2="350" stroke="black" stroke-width="5" />
  <line x1="450" y1="350" x2="450" y2="450" stroke="black" stroke-width="5" />
  <line x1="450" y1="450" x2="450" y2="550" stroke="black" stroke-width="5" />
  <line x1="450" y1="550" x2="450" y2="650" stroke="black" stroke-width="5" />
  <line x1="450" y1="650" x2="450" y2="750" stroke="black" stroke-width="5" />
  <line x1="550" y1="50" x2="550" y2="150" stroke="black" stroke-width="5" />
  <line x1="550" y1="150" x2="550" y2="250" stroke="black" stroke-width="5" />
  <line x1="550" y1="250" x2="550" y2="350" stroke="black" stroke-width="5" />
  <line x1="550" y1="350" x2="550" y2="450" stroke="black" stroke-width="5" />
  <line x1="550" y1="450" x2="550" y2="550" stroke="black" stroke-width="5" />
  <line x1="550" y1="550" x2="550" y2="650" stroke="black" stroke-width="5" />
  <line x1="550" y1="650" x2="550" y2="750" stroke="black" stroke-width="5" />
  <line x1="650" y1="50" x2="650" y2="150" stroke="black" stroke-width="5" />
  <line x1="650" y1="150" x2="650" y2="250" stroke="black" stroke-width="5" />
  <line x1="650" y1="250" x2="650" y2="350" stroke="black" stroke-width="5" />
  <line x1="650" y1="350" x2="650" y2="450" stroke="black" stroke-width="5" />
  <line x1="650" y1="450" x2="650" y2="550" stroke="black" stroke-width="5" />
  <line x1="650" y1="550" x2="650" y2="650" stroke="black" stroke-width="5" />
  <line x1="650" y1="650" x2="650" y2="750" stroke="black" stroke-width="5" />
  <line x1="750" y1="50" x2="750" y2="150" stroke="black" stroke-width="5" />
  <line x1="750" y1="150" x2="750" y2="250" stroke="black" stroke-width="5" />
  <line x1="750" y1="250" x2="750" y2="350" stroke="black" stroke-width="5" />
  <line x1="750" y1="350" x2="750" y2="450" stroke="black" stroke-width="5" />
  <line x1="750" y1="450" x2="750" y2="550" stroke="black" stroke-width="5" />
  <line x1="750" y1="550" x2="750" y2="650" stroke="black" stroke-width="5" />
  <line x1="750" y1="650" x2="750" y2="750" stroke="black" stroke-width="5" />
  <circle cx="50" cy="50" r="10" fill="green" stroke="black" stroke-width="1" />
  <circle cx="50" cy="150" r="10" fill="green" stroke="black" stroke-width="1" />
  <circle cx="50" cy="250" r="10" fill="green" stroke="black" stroke-width="1" />
  <circle cx="50" cy="350" r="10" fill="green" stroke="black" stroke-width="1" />
  <circle cx="50" cy="450" r="10" fill="green" stroke="black" stroke-width="1" />
  <circle cx="50" cy="550" r="10" fill="green" stroke="black" stroke-width="1" />
  <circle cx="50" cy="650" r="10" fill="green" stroke="black" stroke-width="1" />
  <circle cx="50" cy="750" r="10" fill="green" stroke="black" stroke-width="1" />
  <circle cx="150" cy="50" r="10" fill="green" stroke="black" stroke-width="1" />
  <circle cx="150" cy="150" r="10" fill="green" stroke="black" stroke-width="1" />
  <circle cx="150" cy="250" r="10" fill="green" stroke="black" stroke-width="1" />
  <circle cx="150" cy="350" r="10" fill="green" stroke="black" stroke-width="1" />
  <circle cx="150" cy="450" r="10" fill="green" stroke="black" stroke-width="1" />
  <circle cx="150" cy="550" r="10" fill="green" stroke="black" stroke-width="1" />
  <circle cx="150" cy="650" r="10" fill="green" stroke="black" stroke-width="1" />
  <circle cx="150" cy="750" r="10" fill="green" stroke="black" stroke-width="1" />
  <circle cx="250" cy="50" r="10" fill="green" stroke="black" stroke-width="1" />
  <circle cx="250" cy="150" r="10" fill="green" stroke="black" stroke-width="1" />
  <circle cx="250" cy="250" r="10" fill="green" stroke="black" stroke-width="1" />
  <circle cx="250" cy="350" r="10" fill="green" stroke="black" stroke-width="1" />
  <circle cx="250" cy="450" r="10" fill="green" stroke="black" stroke-width="1" />
  <circle cx="250" cy="550" r="10" fill="green" stroke="black" stroke-width="1" />
  <circle cx="250" cy="650" r="10" fill="green" stroke="black" stroke-width="1" />
  <circle cx="250" cy="750" r="10" fill="green" stroke="black" stroke-width="1" />
  <circle cx="350" cy="50" r="10" fill="green" stroke="black" stroke-width="1" />
  <circle cx="350" cy="150" r="10" fill="green" stroke="black" stroke-width="1" />
  <circle cx="350" cy="250" r="10" fill="green" stroke="black" stroke-width="1" />
  <circle cx="350" cy="350" r="10" fill="green" stroke="black" stroke-width="1" />
  <circle cx="350" cy="450" r="10" fill="green" stroke="black" stroke-width="1" />
  <circle cx="350" cy="550" r="10" fill="green" stroke="black" stroke-width="1" />
  <circle cx="350" cy="650" r="10" fill="green" stroke="black" stroke-width="1" />
  <circle cx="350" cy="750" r="10" fill="green" stroke="black" stroke-width="1" />
  <circle cx="450" cy="50" r="10" fill="green" stroke="black" stroke-width="1" />
  <circle cx="450" cy="150" r="10" fill="green" stroke="black" stroke-width="1" />
  <circle cx="450" cy="250" r="10" fill="green" stroke="black" stroke-width="1" />
  <circle cx="450" cy="350" r="10" fill="green" stroke="black" stroke-width="1" />
  <circle cx="450" cy="450" r="10" fill="green" stroke="black" stroke-width="1" />
  <circle cx="450" cy="550" r="10" fill="green" stroke="black" stroke-width="1" />
  <circle cx="450" cy="650" r="10" fill="green" stroke="black" stroke-width="1" />
  <circle cx="450" cy="750" r="10" fill="green" stroke="black" stroke-width="1" />
  <circle cx="550" cy="50" r="10" fill="green" stroke="black" stroke-width="1" />
  <circle cx="550" cy="150" r="10" fill="green" stroke="black" stroke-width="1" />
  <circle cx="550" cy="250" r="10" fill="green" stroke="black" stroke-width="1" />
  <circle cx="550" cy="350" r="10" fill="green" stroke="black" stroke-width="1" />
  <circle cx="550" cy="450" r="10" fill="green" stroke="black" stroke-width="1" />
  <circle cx="550" cy="550" r="10" fill="green" stroke="black" stroke-width="1" />
  <circle cx="550" cy="650" r="10" fill="green" stroke="black" stroke-width="1" />
  <circle cx="550" cy="750" r="10" fill="green" stroke="black" stroke-width="1" />
  <circle cx="650" cy="50" r="10" fill="green" stroke="black" stroke-width="1" />
  <circle cx="650" cy="150" r="10" fill="green" stroke="black" stroke-width="1" />
  <circle cx="650" cy="250" r="10" fill="green" stroke="black" stroke-width="1" />
  <circle cx="650" cy="350" r="10" fill="green" stroke="black" stroke-width="1" />
  <circle cx="650" cy="450" r="10" fill="green" stroke="black" stroke-width="1" />
  <circle cx="650" cy="550" r="10" fill="green" stroke="black" stroke-width="1" />
  <circle cx="650" cy="650" r="10" fill="green" stroke="black" stroke-width="1" />
  <circle cx="650" cy="750" r="10" fill="green" stroke="black" stroke-width="1" />
  <circle cx="750" cy="50" r="10" fill="green" stroke="black" stroke-width="1" />
  <circle cx="750" cy="150" r="10" fill="green" stroke="black" stroke-width="1" />
  <circle cx="750" cy="250" r="10" fill="green" stroke="black" stroke-width="1" />
  <circle cx="750" cy="350" r="10" fill="green" stroke="black" stroke-width="1" />
  <circle cx="750" cy="450" r="10" fill="green" stroke="black" stroke-width="1" />
  <circle cx="750" cy="550" r="10" fill="green" stroke="black" stroke-width="1" />
  <circle cx="750" cy="650" r="10" fill="green" stroke="black" stroke-width="1" />
  <circle cx="750" cy="750" r="10" fill="green" stroke="black" stroke-width="1" />
</svg>
